<svg width="30" height="29" viewBox="0 0 30 29" fill="none" xmlns="http://www.w3.org/2000/svg">
<g clip-path="url(#clip0_2201_1408)">
<path d="M14.901 0.767097C14.65 0.779724 14.4041 0.841696 14.1776 0.949383L4.29958 5.65235C4.04375 5.77392 3.81895 5.95087 3.64189 6.17006C3.46483 6.38925 3.34006 6.64504 3.27686 6.91841L0.840603 17.4827C0.784109 17.7261 0.777666 17.9783 0.821657 18.2242C0.865647 18.4702 0.959177 18.7049 1.0967 18.9145C1.13023 18.9659 1.16631 19.0157 1.20479 19.0636L8.04127 27.5333C8.21818 27.7524 8.44281 27.9294 8.69846 28.051C8.95411 28.1727 9.23422 28.2358 9.51799 28.2359L20.482 28.2326C20.7656 28.2327 21.0456 28.1698 21.3013 28.0484C21.5569 27.9271 21.7816 27.7505 21.9587 27.5316L28.7935 19.0603C28.9704 18.841 29.0951 18.5851 29.1581 18.3117C29.2212 18.0383 29.221 17.7544 29.1577 17.481L26.7164 6.91675C26.6534 6.64354 26.5289 6.38785 26.3521 6.16867C26.1754 5.9495 25.9509 5.77246 25.6954 5.6507L15.8173 0.949383C15.5322 0.813769 15.2171 0.751089 14.901 0.767097Z" fill="url(#paint0_linear_2201_1408)"/>
<path d="M14.896 0.0015647C14.6305 0.0151079 14.3704 0.0810291 14.131 0.19545L3.70421 5.16025C3.4345 5.28851 3.19743 5.47516 3.0106 5.70638C2.82377 5.9376 2.69196 6.20744 2.62494 6.49591L0.053988 17.6485C-0.0055124 17.9054 -0.0123279 18.1715 0.0339443 18.4311C0.0802166 18.6907 0.178637 18.9385 0.323389 19.1598C0.359048 19.2135 0.397342 19.2655 0.438134 19.3156L7.65543 28.2592C7.84229 28.4904 8.07939 28.677 8.34913 28.8053C8.61888 28.9335 8.91435 29 9.21363 28.9999L20.7879 28.9983C21.0872 28.9984 21.3827 28.9318 21.6524 28.8036C21.9222 28.6754 22.1593 28.4887 22.3461 28.2575L29.5601 19.3139C29.7468 19.0825 29.8784 18.8125 29.9452 18.5239C30.012 18.2353 30.0122 17.9355 29.9459 17.6468L27.37 6.49425C27.3029 6.20578 27.1711 5.93594 26.9843 5.70472C26.7975 5.47351 26.5604 5.28685 26.2907 5.15859L15.8639 0.19545C15.5629 0.0510111 15.2301 -0.0162335 14.896 -9.24414e-05M14.901 0.765508C15.2165 0.749777 15.531 0.81245 15.8156 0.947793L25.6937 5.64911C25.9495 5.77067 26.1743 5.94763 26.3514 6.16682C26.5284 6.38601 26.6532 6.64179 26.7164 6.91516L29.1576 17.4795C29.2208 17.7529 29.2206 18.0369 29.1573 18.3103C29.094 18.5838 28.969 18.8396 28.7918 19.0587L21.957 27.5317C21.7801 27.7503 21.5556 27.9268 21.3003 28.0482C21.045 28.1695 20.7653 28.2326 20.4819 28.2327L9.51796 28.2343C9.23419 28.2343 8.95408 28.1711 8.69843 28.0494C8.44278 27.9278 8.21815 27.7508 8.04124 27.5317L1.20476 19.0637C1.16628 19.0157 1.1302 18.966 1.09667 18.9145C0.959147 18.705 0.865617 18.4702 0.821627 18.2243C0.777636 17.9784 0.784079 17.7262 0.840573 17.4828L3.27683 6.92014C3.3398 6.64646 3.46447 6.39035 3.64154 6.17086C3.81861 5.95137 4.04353 5.77416 4.29955 5.65242L14.1776 0.94945C14.4041 0.841764 14.65 0.778135 14.901 0.765508Z" fill="white"/>
<path d="M8.60673 7.04297C8.41973 7.04275 8.23453 7.0793 8.06172 7.15051C7.88892 7.22172 7.7319 7.32619 7.59968 7.45796C7.46745 7.58972 7.3626 7.74619 7.29114 7.91839C7.21968 8.09059 7.18301 8.27514 7.18323 8.46149V20.5387C7.18323 21.3259 7.81848 21.9589 8.60673 21.9589H21.3917C21.5789 21.9594 21.7645 21.9229 21.9376 21.8517C22.1107 21.7805 22.268 21.6759 22.4004 21.5439C22.5328 21.412 22.6378 21.2552 22.7092 21.0827C22.7807 20.9102 22.8173 20.7254 22.8168 20.5387V8.46149C22.817 8.275 22.7803 8.09031 22.7087 7.918C22.6372 7.74569 22.5322 7.58916 22.3998 7.45737C22.2674 7.32559 22.1102 7.22114 21.9372 7.15003C21.7642 7.07892 21.5788 7.04254 21.3917 7.04297H8.60673ZM12.9155 10.8677C13.7802 10.8677 14.4737 11.5637 14.4737 12.4254C14.4737 13.2871 13.7802 13.9814 12.9155 13.9814C12.5009 13.9814 12.1033 13.8173 11.8101 13.5252C11.517 13.2331 11.3523 12.8368 11.3523 12.4237C11.3523 12.0106 11.517 11.6144 11.8101 11.3222C12.1033 11.0301 12.5009 10.8677 12.9155 10.8677ZM17.0829 10.866C17.9476 10.866 18.6411 11.562 18.6411 12.4237C18.6411 13.2854 17.9476 13.9798 17.0829 13.9798C16.6683 13.9798 16.2707 13.8157 15.9776 13.5235C15.6844 13.2314 15.5197 12.8352 15.5197 12.4221C15.5197 12.0089 15.6844 11.6127 15.9776 11.3206C16.2707 11.0285 16.6683 10.866 17.0829 10.866ZM12.9155 15.0188C14.1295 15.0188 16.5624 15.627 16.5624 16.8367V18.1342H9.27026V16.8367C9.27026 15.627 11.7032 15.0188 12.9155 15.0188ZM17.0829 15.0188C18.2969 15.0188 20.7298 15.627 20.7298 16.8367V18.1342H17.6034V16.8367C17.6034 16.0678 17.1827 15.4811 16.5774 15.0453C16.7614 15.0287 16.9299 15.0199 17.0829 15.0188Z" fill="white"/>
</g>
<defs>
<linearGradient id="paint0_linear_2201_1408" x1="4.99997" y1="1" x2="21" y2="25.5" gradientUnits="userSpaceOnUse">
<stop stop-color="#81A4DC"/>
<stop offset="1" stop-color="#531B8A"/>
</linearGradient>
<clipPath id="clip0_2201_1408">
<rect width="30" height="29" fill="white"/>
</clipPath>
</defs>
</svg>
